# xmcd
#
# Track frame offsets: 
#        150
#        14081
#        30426
#        46144
#        59503
#        78152
#        97455
#        110869
#        126439
#        142739
#        159907
#
# Disc length: 2335 seconds
#
# Revision: 0
# Processed by: cddbd v1.5.2PL0 Copyright (c) Steve Scherf et al.
# Submitted via: ExactAudioCopy v1.0b3
#
DISCID=93091d0b
DTITLE=Melissa Rae Barrie - Breakaway
DYEAR=2011
DGENRE=Country
TTITLE0=Unforgivable
TTITLE1=Passenger Window
TTITLE2=Miss Me For A Minute
TTITLE3=Say Goodbye
TTITLE4=Room To Breathe
TTITLE5=Adore Her
TTITLE6=Ain't As Bad As It Seems
TTITLE7=Let You Down
TTITLE8=Not Up To Me
TTITLE9=Always
TTITLE10=Wait For You
EXTD=
EXTT0=
EXTT1=
EXTT2=
EXTT3=
EXTT4=
EXTT5=
EXTT6=
EXTT7=
EXTT8=
EXTT9=
EXTT10=
PLAYORDER=
